# AST/ASF file generated using VICON BodyLanguage
# -----------------------------------------------
:version 1.10
:name VICON
:units
  mass 1.0
  length 0.45
  angle deg
:documentation
   .ast/.asf automatically generated from VICON data using
   VICON BodyBuilder and BodyLanguage model FoxedUp or BRILLIANT.MOD
:root
   order TX TY TZ RX RY RZ
   axis XYZ
   position 0 0 0  
   orientation 0 0 0 
:bonedata
  begin
     id 1 
     name lhipjoint
     direction 0.643824 -0.71708 0.266994 
     length 2.52133 
     axis 0 0 0  XYZ
  end
  begin
     id 2 
     name lfemur
     direction 0.34202 -0.939693 0  
     length 7.51824  
     axis 0 0 20  XYZ
    dof rx ry rz
    limits (-160.0 20.0)
           (-70.0 70.0)
           (-60.0 70.0)
  end
  begin
     id 3 
     name ltibia
     direction 0.34202 -0.939693 0   
     length 7.3685   
     axis 0 0 20   XYZ
    dof rx
    limits (-10.0 170.0)
  end
  begin
     id 4 
     name lfoot
     direction 0.105419 -0.289636 0.951314   
     length 2.20972   
     axis -90 7.62852e-016 20   XYZ
    dof rx rz
    limits (-45.0 90.0)
           (-70.0 20.0)
  end
  begin
     id 5 
     name ltoes
     direction 1.53549e-011 -4.21833e-011 1   
     length 1.10139   
     axis -90 7.62852e-016 20   XYZ
    dof rx
    limits (-90.0 20.0)
  end
  begin
     id 6 
     name rhipjoint
     direction -0.608823 -0.743445 0.276811   
     length 2.43192  
     axis 0 0 0  XYZ 
  end
  begin
     id 7 
     name rfemur
     direction -0.34202 -0.939693 0   
     length 7.69715   
     axis 0 0 -20   XYZ
    dof rx ry rz
    limits (-160.0 20.0)
           (-70.0 70.0)
           (-70.0 60.0)
  end
  begin
     id 8 
     name rtibia
     direction -0.34202 -0.939693 0   
     length 7.44924   
     axis 0 0 -20   XYZ
    dof rx
    limits (-10.0 170.0)
 end
 begin
     id 9 
     name rfoot
     direction -0.103614 -0.284677 0.953007   
     length 2.22623  
     axis -90 -7.62852e-016 -20   XYZ
    dof rx rz
    limits (-45.0 90.0)
           (-20.0 70.0)
  end
  begin
     id 10 
     name rtoes
     direction -1.53537e-011 -4.22026e-011 1   
     length 1.11   
     axis -90 -7.62852e-016 -20   XYZ
    dof rx
    limits (-90.0 20.0)
  end
  begin
     id 11 
     name lowerback
     direction -0.0101212 0.99662 -0.0815298   
     length 2.08277   
     axis 0 0 0   XYZ
    dof rx ry rz
    limits (-20.0 45.0)
           (-30.0 30.0)
           (-30.0 30.0)
  end
  begin
     id 12 
     name upperback
     direction 0.024314 0.999591 -0.0150645   
     length 2.08524   
     axis 0 0 0   XYZ
    dof rx ry rz
    limits (-20.0 45.0)
           (-30.0 30.0)
           (-30.0 30.0)
  end
  begin
     id 13 
     name thorax
     direction 0.0285959 0.999323 0.0231357   
     length 2.09645   
     axis 0 0 0   XYZ
    dof rx ry rz
    limits (-20.0 45.0)
           (-30.0 30.0)
           (-30.0 30.0)
  end
  begin
     id 14 
     name lowerneck
     direction -0.065512 0.979301 0.191515   
     length 1.63798   
     axis 0 0 0   XYZ
    dof rx ry rz
    limits (-20.0 45.0)
           (-30.0 30.0)
           (-30.0 30.0)
  end
  begin
     id 15 
     name upperneck
     direction 0.0498479 0.98191 -0.182667   
     length 1.68731   
     axis 0 0 0   XYZ
    dof rx ry rz
    limits (-20.0 45.0)
           (-30.0 30.0)
           (-30.0 30.0)
  end
  begin
     id 16
     name head
     direction 0.0230358 0.996257 -0.0833175  
     length 1.69785  
     axis 0 0 0   XYZ
    dof rx ry rz
    limits (-20.0 45.0)
           (-30.0 30.0)
           (-30.0 30.0)
  end
  begin
     id 17 
     name lclavicle
     direction 0.967963 0.201165 -0.150269  
     length 3.63976  
     axis 0 0 0   XYZ
    dof ry rz
    limits (-20.0 10.0)
           (0.0 20.0)
  end
  begin
     id 18 
     name lhumerus
     direction 1 -4.48954e-011 -2.92837e-028   
     length 5.32462   
     axis 180 -30 -90   XYZ
    dof rx ry rz
    limits (-60.0 90.0)
           (-90.0 90.0)
           (-90.0 90.0)
  end
  begin
     id 19
     name lradius
     direction 1 -4.48958e-011 -6.39511e-027   
     length 3.48402   
     axis 180 -30 -90   XYZ
    dof rx
    limits (-10.0 170.0)
  end
  begin
     id 20
     name lwrist
     direction 1 -4.48975e-011 -1.1413e-026   
     length 1.74201   
     axis 6.88575e-015 90 90   XYZ
    dof ry
    limits (-180.0 0.0)
 end
  begin
     id 21 
     name lhand
     direction 1 -4.48899e-011 -2.28192e-026   
     length 0.572476   
     axis 1.45643e-014 90 90   XYZ
    dof rx rz
    limits (-90.0 90.0)
           (-45.0 45.0)
  end
  begin
     id 22 
     name lfingers
     direction 1 -4.49155e-011 -4.5684e-026   
     length 0.461545   
     axis 2.91283e-014 90 90   XYZ
    dof rx
    limits (0.0 90.0)
  end
  begin
     id 23
     name lthumb
     direction 0.707107 -6.34943e-011 0.707107   
     length 0.662688   
     axis -90 45 -2.25915e-014   XYZ
    dof rx rz
    limits (-45.0 45.0)
           (-45.0 45.0)
  end
  begin
     id 24 
     name rclavicle
     direction -0.964103 0.264019 -0.0282629   
     length 3.54491  
     axis 0 0 0   XYZ 
    dof ry rz
    limits (-10.0 20.0)
           (-20.0 0.0)
  end
  begin
     id 25 
     name rhumerus
     direction -1 -4.48964e-011 -2.45032e-027  
     length 5.33589   
     axis 180 30 90   XYZ
    dof rx ry rz
    limits (-90.0 60.0)
           (-90.0 90.0)
           (-90.0 90.0)
  end
  begin
     id 26 
     name rradius
     direction -1 -4.48987e-011 -1.55093e-027   
     length 3.64134   
     axis 180 30 90   XYZ
    dof rx
    limits (-10.0 170.0)
  end
  begin
     id 27 
     name rwrist
     direction -1 -4.4897e-011 -1.14128e-026   
     length 1.82067   
     axis 6.88575e-015 -90 -90   XYZ
    dof ry
    limits (-180.0 0.0)
  end
  begin
     id 28
     name rhand
     direction -1 -4.49021e-011 -2.28301e-026   
     length 0.734811   
     axis 1.45643e-014 -90 -90   XYZ
    dof rx rz
    limits (-90.0 90.0)
           (-45.0 45.0)
  end
  begin
     id 29
     name rfingers
     direction -1 -4.48862e-011 -4.56319e-026   
     length 0.592424   
     axis 2.91283e-014 -90 -90   XYZ
    dof rx
    limits (0.0 90.0)
  end
  begin
     id 30
     name rthumb
     direction -0.707107 -6.34978e-011 0.707107   
     length 0.850605   
     axis -90 -45 2.25915e-014   XYZ
    dof rx rz
    limits (-45.0 45.0)
           (-45.0 45.0)
  end
:hierarchy
  begin
    root lhipjoint rhipjoint lowerback
    lhipjoint lfemur
    lfemur ltibia
    ltibia lfoot
    lfoot ltoes
    rhipjoint rfemur
    rfemur rtibia
    rtibia rfoot
    rfoot rtoes
    lowerback upperback
    upperback thorax
    thorax lowerneck lclavicle rclavicle
    lowerneck upperneck
    upperneck head
    lclavicle lhumerus
    lhumerus lradius
    lradius lwrist
    lwrist lhand lthumb
    lhand lfingers
    rclavicle rhumerus
    rhumerus rradius
    rradius rwrist
    rwrist rhand rthumb
    rhand rfingers
  end

#!OML:ASF F:\VICON\USERDATA\INSTALL\rory3\rory3.ASF
:FULLY-SPECIFIED
:DEGREES
296
root -2.92513 18.0768 -1.9025 13.2153 40.5625 3.06248
lowerback 4.35255 -4.12857 -4.86036
upperback 2.32261 -5.65136 0.665693
thorax 0.502304 -2.87581 3.58613
lowerneck -16.9308 -2.05904 -12.6219
upperneck 37.2162 3.84186 -4.58364
head 16.3066 -0.707201 0.933501
rclavicle 9.80008e-014 -2.62396e-014
rhumerus 17.9267 16.8882 -50.8703
rradius 111.801
rwrist -33.1277
rhand 36.565 20.4228
rfingers 7.12502
rthumb 59.4919 6.11994
lclavicle 9.80008e-014 -2.62396e-014
lhumerus 16.1257 -16.8502 89.1502
lradius 81.3151
lwrist 61.8796
lhand 32.2077 31.9781
lfingers 7.12502
lthumb 55.6801 49.6132
rfemur -27.5699 2.26187 20.1666
rtibia 29.36
rfoot -11.5708 -6.18199
rtoes 13.8442
lfemur -6.74407 -1.09425 -14.3032
ltibia 30.9084
lfoot -2.71262 0.0509732
ltoes -30.6428
297
root -2.93326 18.0776 -1.85966 13.285 40.8797 3.13309
lowerback 4.33743 -4.04889 -4.84937
upperback 2.32071 -5.54411 0.569325
thorax 0.487305 -2.82056 3.4782
lowerneck -16.7562 -2.25456 -12.5405
upperneck 36.8753 3.46004 -4.62574
head 16.1054 -0.83367 0.836677
rclavicle 3.45885e-014 1.19271e-015
rhumerus 15.9402 17.4194 -51.0939
rradius 111.46
rwrist -31.8123
rhand 35.5419 20.3189
rfingers 7.12502
rthumb 58.6083 5.15613
lclavicle 3.45885e-014 1.19271e-015
lhumerus 15.0354 -17.5274 88.4303
lradius 79.9678
lwrist 59.9018
lhand 26.5195 30.6052
lfingers 7.12502
lthumb 50.5524 51.533
rfemur -27.4414 1.96165 20.3093
rtibia 29.3324
rfoot -11.7027 -6.15472
rtoes 14.2618
lfemur -6.92062 -1.23441 -14.2409
ltibia 31.2218
lfoot -2.74584 0.170658
ltoes -30.1568
298
root -2.94261 18.0759 -1.81557 13.3404 41.2415 3.23655
lowerback 4.34414 -4.00611 -4.93156
upperback 2.34922 -5.48927 0.499883
thorax 0.508832 -2.79418 3.45038
lowerneck -16.7975 -2.4383 -12.5056
upperneck 36.7015 3.15254 -4.61006
head 16.0382 -0.944237 0.784142
rclavicle 1.2424e-014 -2.24627e-014
rhumerus 14.0803 17.7797 -51.4095
rradius 110.801
rwrist -30.8984
rhand 34.8148 20.2732
rfingers 7.12502
rthumb 57.9758 4.53005
lclavicle 1.2424e-014 -2.24627e-014
lhumerus 13.72 -18.1824 87.7881
lradius 78.7441
lwrist 57.9476
lhand 20.4429 30.4617
lfingers 7.12502
lthumb 44.9474 53.982
rfemur -27.3013 1.67652 20.4287
rtibia 29.3671
rfoot -11.8813 -6.19551
rtoes 14.7133
lfemur -7.04559 -1.35667 -14.1848
ltibia 31.4835
lfoot -2.72813 0.240102
ltoes -29.6999
299
root -2.95273 18.0725 -1.77389 13.26 41.7074 3.22217
lowerback 4.42635 -3.98017 -4.88053
upperback 2.42223 -5.45407 0.465988
thorax 0.526807 -2.77704 3.38994
lowerneck -16.9297 -2.6199 -12.6091
upperneck 36.5726 2.86782 -4.4612
head 16.0108 -1.0507 0.815543
rclavicle 3.40916e-014 5.76476e-015
rhumerus 12.0399 17.9812 -51.9107
rradius 110.006
rwrist -29.869
rhand 32.7684 19.9263
rfingers 7.12502
rthumb 56.1771 2.67481
lclavicle 3.40916e-014 5.76476e-015
lhumerus 12.3524 -18.8274 87.2086
lradius 77.4816
lwrist 55.8803
lhand 14.795 30.6573
lfingers 7.12502
lthumb 39.6587 55.9854
rfemur -27.1163 1.30473 20.6721
rtibia 29.4248
rfoot -12.0754 -6.22668
rtoes 14.814
lfemur -7.14016 -1.58046 -14.0088
ltibia 31.7377
lfoot -2.64613 0.273253
ltoes -29.2292
300
root -2.96055 18.0708 -1.73823 13.3145 42.1214 3.21381
lowerback 4.45183 -3.95131 -4.82944
upperback 2.39973 -5.41565 0.467828
thorax 0.480946 -2.75568 3.3661
lowerneck -16.9059 -2.76366 -12.7682
upperneck 36.3921 2.64198 -4.35113
head 15.9216 -1.13883 0.851288
rclavicle -4.91992e-014 2.34566e-014
rhumerus 9.88936 18.1542 -52.5109
rradius 109.162
rwrist -28.9462
rhand 30.0996 19.2659
rfingers 7.12502
rthumb 53.7965 0.291158
lclavicle -4.91992e-014 2.34566e-014
lhumerus 10.8959 -19.3119 86.8241
lradius 76.0564
lwrist 53.4142
lhand 9.96816 30.7764
lfingers 7.12502
lthumb 35.0961 57.31
rfemur -27.1116 0.879231 20.8976
rtibia 29.498
rfoot -12.2209 -6.16948
rtoes 14.4434
lfemur -7.41662 -1.74337 -13.8795
ltibia 32.0057
lfoot -2.5645 0.287172
ltoes -28.3592
301
root -2.9691 18.0687 -1.70202 13.2841 42.4646 3.0796
lowerback 4.54979 -3.90553 -4.85583
upperback 2.32343 -5.36301 0.583803
thorax 0.356545 -2.72642 3.51004
lowerneck -16.8087 -2.93943 -12.8286
upperneck 36.1623 2.40933 -4.48242
head 15.8022 -1.24559 0.765905
rclavicle -6.40087e-014 1.5704e-014
rhumerus 7.85173 18.2256 -53.021
rradius 108.213
rwrist -28.4648
rhand 27.7292 18.3936
rfingers 7.12502
rthumb 51.6543 -1.91514
lclavicle -6.40087e-014 1.5704e-014
lhumerus 9.43483 -19.6227 86.6075
lradius 74.4419
lwrist 50.6835
lhand 5.5083 31.5639
lfingers 7.12502
lthumb 30.8547 58.993
rfemur -27.1076 0.537118 21.2154
rtibia 29.5635
rfoot -12.3863 -6.15006
rtoes 13.9994
lfemur -7.64102 -1.87633 -13.6727
ltibia 32.2676
lfoot -2.37739 0.65753
ltoes -26.7317
302
root -2.9778 18.0646 -1.66314 13.2967 42.8647 3.09747
lowerback 4.64911 -3.89271 -5.02868
upperback 2.31502 -5.35756 0.684668
thorax 0.318555 -2.72519 3.71717
lowerneck -16.8467 -3.12993 -12.8613
upperneck 35.9287 2.18564 -4.65802
head 15.7146 -1.35441 0.658013
rclavicle 8.80616e-014 -2.82274e-014
rhumerus 5.90002 18.0693 -53.6436
rradius 107.092
rwrist -28.2195
rhand 25.3817 17.0977
rfingers 7.12502
rthumb 49.5113 -4.37784
lclavicle 8.80616e-014 -2.82274e-014
lhumerus 8.01539 -19.7776 86.4681
lradius 72.7289
lwrist 47.6552
lhand 1.64881 33.3043
lfingers 7.12502
lthumb 27.1687 61.3684
rfemur -27.0241 0.189357 21.413
rtibia 29.6287
rfoot -12.571 -6.15741
rtoes 14.0204
lfemur -7.76587 -2.01823 -13.569
ltibia 32.5058
lfoot -2.16275 1.30578
ltoes -26.2416
303
root -2.98242 18.0601 -1.62487 13.4063 43.3165 3.22293
lowerback 4.58954 -3.89346 -5.12804
upperback 2.39108 -5.35657 0.687908
thorax 0.440145 -2.73029 3.76683
lowerneck -16.9999 -3.32998 -12.9893
upperneck 35.7178 1.9144 -4.60307
head 15.6593 -1.46827 0.655276
rclavicle -4.19933e-014 3.91606e-014
rhumerus 3.98692 17.633 -54.4693
rradius 105.756
rwrist -27.7449
rhand 22.382 15.8024
rfingers 7.12502
rthumb 46.7473 -6.97437
lclavicle -4.19933e-014 3.91606e-014
lhumerus 6.71415 -19.8448 86.3046
lradius 71.0475
lwrist 44.3861
lhand -1.36338 35.5563
lfingers 7.12502
lthumb 24.2839 64.0382
rfemur -26.9507 -0.179341 21.5125
rtibia 29.6961
rfoot -12.8463 -6.20615
rtoes 14.3744
lfemur -7.92857 -2.13652 -13.5564
ltibia 32.7359
lfoot -2.26602 1.80498
ltoes -26.3319
304
root -2.9859 18.0586 -1.59187 13.4052 43.7836 3.19259
lowerback 4.64668 -3.88 -5.04109
upperback 2.38474 -5.3381 0.692261
thorax 0.391996 -2.71859 3.72778
lowerneck -16.9439 -3.50222 -13.1366
upperneck 35.4714 1.62303 -4.47884
head 15.5366 -1.57699 0.684521
rclavicle 5.27276e-014 -1.82882e-014
rhumerus 1.90378 17.0439 -55.3251
rradius 104.398
rwrist -27.4976
rhand 18.9731 14.6632
rfingers 7.12502
rthumb 43.5772 -9.37557
lclavicle 5.27276e-014 -1.82882e-014
lhumerus 5.2969 -19.8524 86.2311
lradius 69.2408
lwrist 40.8758
lhand -3.24309 37.6552
lfingers 7.12502
lthumb 22.4806 66.3667
rfemur -26.9146 -0.536498 21.7225
rtibia 29.8153
rfoot -13.1156 -6.24963
rtoes 14.4188
lfemur -8.09975 -2.3703 -13.4447
ltibia 32.9354
lfoot -2.17144 2.33751
ltoes -25.2554
305
root -2.99087 18.0552 -1.55921 13.2713 44.2399 3.03955
lowerback 4.85472 -3.84708 -4.90716
upperback 2.32379 -5.30076 0.732696
thorax 0.200672 -2.69255 3.71397
lowerneck -16.8285 -3.66064 -13.2972
upperneck 35.2512 1.35204 -4.3578
head 15.4146 -1.67973 0.718426
rclavicle 1.47101e-014 -5.56597e-015
rhumerus -0.175846 16.2801 -56.1139
rradius 102.984
rwrist -27.6439
rhand 15.9083 13.4668
rfingers 7.12502
rthumb 40.7059 -11.5423
lclavicle 1.47101e-014 -5.56597e-015
lhumerus 3.75071 -19.7941 86.247
lradius 67.2274
lwrist 37.2236
lhand -4.60584 38.8855
lfingers 7.12502
lthumb 21.1721 67.7494
rfemur -26.8381 -0.998941 22.0746
rtibia 29.9547
rfoot -13.2856 -6.22255
rtoes 13.9343
lfemur -8.20296 -2.54519 -13.2407
ltibia 33.1177
lfoot -1.7518 2.98167
ltoes -23.4051
306
root -2.99748 18.0486 -1.52135 13.2641 44.6804 3.09756
lowerback 4.96693 -3.81054 -5.00903
upperback 2.34933 -5.26066 0.771346
thorax 0.174002 -2.67332 3.81655
lowerneck -16.8436 -3.83057 -13.4937
upperneck 35.0013 1.11717 -4.28532
head 15.312 -1.77982 0.74267
rclavicle 1.70458e-014 1.0138e-014
rhumerus -2.00157 15.2573 -56.8321
rradius 101.368
rwrist -27.8543
rhand 13.5075 12.231
rfingers 7.12502
rthumb 38.445 -13.4457
lclavicle 1.70458e-014 1.0138e-014
lhumerus 2.24404 -19.5557 86.3356
lradius 65.3532
lwrist 33.8782
lhand -5.9636 40.9282
lfingers 7.12502
lthumb 19.8674 69.9328
rfemur -26.7543 -1.53571 22.292
rtibia 30.1272
rfoot -13.433 -6.20326
rtoes 12.9396
lfemur -8.26461 -2.62618 -13.1858
ltibia 33.2922
lfoot -1.60826 3.43129
ltoes -22.4197
